<svg width="162" height="37" viewBox="0 0 162 37" fill="none" xmlns="http://www.w3.org/2000/svg">
<path d="M147 31.0515C147.389 30.9542 147.949 30.7431 148.595 30.4258M148.595 30.4258C151.265 29.113 155.403 25.9808 155 21.5515C155.5 21.0515 146.5 18.0515 148.5 30.0515C148.519 30.1671 148.551 30.2928 148.595 30.4258ZM148.595 30.4258C149.232 32.3477 152.518 35.7926 160 32.0515M131 9.55149L130.5 34.5515M139.5 9.55149L139 34.5515M107 3.55149C99.5 1.55149 91.5 10.5515 91.5 20.0515C91.5 30.5515 97 36.5515 107 33.5515M38.5 20.0515C34.5 20.0515 32 24.0515 32 27.5515C32 32.0515 36.5 33.5515 38 33.5515C39.5 33.5515 44.5 32.5515 44.5 27.5515C44.5 27.0264 44.4591 26.5218 44.383 26.04M44.383 26.04C43.8067 22.3923 41.2083 20.0515 39 20.0515C42.0691 20.9958 43.3546 23.5008 44.383 26.04ZM44.383 26.04C45.5326 28.8785 46.3608 31.7597 49 32.5515C50 32.3848 52.2 31.7515 53 30.5515C53.291 30.115 53 23.0515 53 22.5515C53 22.0515 53.8571 34.2658 55 32.5515C57 29.5515 59.5 25.5515 60.5 25.0515C61.1177 24.7426 63.5 32.5515 64 32.5515C64.5 32.5515 68.5 24.5515 69 24.5515C69.5 24.5515 71.5 32.5515 73 32.5515M2 3.55149C7 2.88483 16.7439 1.7442 17 2.05149C19.5 5.05149 23 27.8432 10.5 33.0515C6.49998 34.7182 2.99998 33.5515 2.99998 33.5515M111.5 28.0515C111.5 30.0515 113.5 34.5515 117 34.5515C120.5 34.5515 123.5 32.0515 123.5 29.5515C123.5 27.0515 121 22.0515 117 22.0515C113.8 22.0515 111.5 26.0515 111.5 28.0515Z" stroke="#57BD6C" stroke-width="4" stroke-linecap="round"/>
</svg>
