<svg width="830" height="180" viewBox="0 0 830 180" fill="none" xmlns="http://www.w3.org/2000/svg">
<path d="M163.738 116.7C159.071 116.7 155.384 115.393 152.678 112.78C149.971 110.167 148.618 106.573 148.618 102V78.9C148.618 74.3267 149.971 70.7333 152.678 68.12C155.384 65.5067 159.071 64.2 163.738 64.2C168.311 64.2 171.951 65.53 174.658 68.19C177.364 70.8033 178.718 74.3733 178.718 78.9H172.418C172.418 76.0067 171.648 73.79 170.108 72.25C168.614 70.6633 166.491 69.87 163.738 69.87C160.984 69.87 158.814 70.6633 157.228 72.25C155.688 73.79 154.918 76.0067 154.918 78.9V102C154.918 104.893 155.688 107.133 157.228 108.72C158.814 110.26 160.984 111.03 163.738 111.03C166.491 111.03 168.614 110.26 170.108 108.72C171.648 107.133 172.418 104.893 172.418 102H178.718C178.718 106.527 177.364 110.12 174.658 112.78C171.951 115.393 168.311 116.7 163.738 116.7ZM205.15 116.56C200.53 116.56 196.844 115.207 194.09 112.5C191.384 109.793 190.03 106.013 190.03 101.16V92.34C190.03 87.44 191.384 83.66 194.09 81C196.797 78.2933 200.484 76.94 205.15 76.94C209.817 76.94 213.504 78.2933 216.21 81C218.917 83.66 220.27 87.44 220.27 92.34V101.16C220.27 106.013 218.894 109.793 216.14 112.5C213.434 115.207 209.77 116.56 205.15 116.56ZM205.15 110.96C207.904 110.96 210.05 110.19 211.59 108.65C213.177 107.11 213.97 104.847 213.97 101.86V91.64C213.97 88.6533 213.177 86.39 211.59 84.85C210.05 83.31 207.904 82.54 205.15 82.54C202.444 82.54 200.297 83.31 198.71 84.85C197.124 86.39 196.33 88.6533 196.33 91.64V101.86C196.33 104.847 197.124 107.11 198.71 108.65C200.297 110.19 202.444 110.96 205.15 110.96ZM252.723 116C249.316 116 246.586 115.02 244.533 113.06C242.526 111.053 241.523 108.417 241.523 105.15V70.64H228.223V64.9H247.823V105.15C247.823 106.737 248.266 107.997 249.153 108.93C250.04 109.817 251.23 110.26 252.723 110.26H264.623V116H252.723ZM294.696 116C291.289 116 288.559 115.02 286.506 113.06C284.499 111.053 283.496 108.417 283.496 105.15V70.64H270.196V64.9H289.796V105.15C289.796 106.737 290.239 107.997 291.126 108.93C292.012 109.817 293.202 110.26 294.696 110.26H306.596V116H294.696ZM331.068 116.7C326.542 116.7 322.878 115.347 320.078 112.64C317.325 109.887 315.948 106.107 315.948 101.3V92.2C315.948 87.3933 317.325 83.6367 320.078 80.93C322.878 78.1767 326.542 76.8 331.068 76.8C334.102 76.8 336.738 77.4067 338.978 78.62C341.265 79.8333 343.038 81.5367 344.298 83.73C345.558 85.9233 346.188 88.5133 346.188 91.5V98.36H322.108V102C322.108 104.847 322.925 107.11 324.558 108.79C326.192 110.423 328.362 111.24 331.068 111.24C333.402 111.24 335.315 110.797 336.808 109.91C338.348 108.977 339.282 107.74 339.608 106.2H345.908C345.488 109.42 343.925 111.987 341.218 113.9C338.512 115.767 335.128 116.7 331.068 116.7ZM322.108 93.46H340.028V91.5C340.028 88.4667 339.235 86.1333 337.648 84.5C336.108 82.82 333.915 81.98 331.068 81.98C328.222 81.98 326.005 82.82 324.418 84.5C322.878 86.1333 322.108 88.4667 322.108 91.5V93.46ZM412.914 116.7C408.014 116.7 404.164 115.323 401.364 112.57C398.564 109.817 397.164 106.06 397.164 101.3H403.464C403.464 104.427 404.28 106.853 405.914 108.58C407.594 110.26 409.927 111.1 412.914 111.1C415.9 111.1 418.21 110.26 419.844 108.58C421.524 106.853 422.364 104.427 422.364 101.3V64.9H428.664V101.3C428.664 106.06 427.24 109.817 424.394 112.57C421.594 115.323 417.767 116.7 412.914 116.7ZM456.986 116.56C452.366 116.56 448.68 115.207 445.926 112.5C443.22 109.793 441.866 106.013 441.866 101.16V92.34C441.866 87.44 443.22 83.66 445.926 81C448.633 78.2933 452.32 76.94 456.986 76.94C461.653 76.94 465.34 78.2933 468.046 81C470.753 83.66 472.106 87.44 472.106 92.34V101.16C472.106 106.013 470.73 109.793 467.976 112.5C465.27 115.207 461.606 116.56 456.986 116.56ZM456.986 110.96C459.74 110.96 461.886 110.19 463.426 108.65C465.013 107.11 465.806 104.847 465.806 101.86V91.64C465.806 88.6533 465.013 86.39 463.426 84.85C461.886 83.31 459.74 82.54 456.986 82.54C454.28 82.54 452.133 83.31 450.546 84.85C448.96 86.39 448.166 88.6533 448.166 91.64V101.86C448.166 104.847 448.96 107.11 450.546 108.65C452.133 110.19 454.28 110.96 456.986 110.96ZM498.889 116.7C494.456 116.7 490.909 115.393 488.249 112.78C485.589 110.12 484.259 106.527 484.259 102V77.5H490.559V102C490.559 104.8 491.306 107.04 492.799 108.72C494.292 110.353 496.322 111.17 498.889 111.17C501.502 111.17 503.556 110.353 505.049 108.72C506.589 107.04 507.359 104.8 507.359 102V77.5H513.659V102C513.659 106.527 512.306 110.12 509.599 112.78C506.892 115.393 503.322 116.7 498.889 116.7ZM546.532 116C543.125 116 540.395 115.02 538.342 113.06C536.335 111.053 535.332 108.417 535.332 105.15V70.64H522.032V64.9H541.632V105.15C541.632 106.737 542.075 107.997 542.962 108.93C543.848 109.817 545.038 110.26 546.532 110.26H558.432V116H546.532ZM567.854 116V110.26H581.504V83.24H569.254V77.5H587.804V110.26H600.754V116H567.854ZM583.954 70.57C582.414 70.57 581.201 70.1733 580.314 69.38C579.428 68.5867 578.984 67.5133 578.984 66.16C578.984 64.76 579.428 63.6633 580.314 62.87C581.201 62.03 582.414 61.61 583.954 61.61C585.494 61.61 586.708 62.03 587.594 62.87C588.481 63.6633 588.924 64.76 588.924 66.16C588.924 67.5133 588.481 68.5867 587.594 69.38C586.708 70.1733 585.494 70.57 583.954 70.57ZM621.517 116.7C617.55 116.7 614.4 115.603 612.067 113.41C609.734 111.17 608.567 108.253 608.567 104.66C608.567 102.28 609.104 100.203 610.177 98.43C611.25 96.6567 612.744 95.28 614.657 94.3C616.57 93.2733 618.764 92.76 621.237 92.76H633.137V89.75C633.137 84.7567 630.407 82.26 624.947 82.26C622.52 82.26 620.56 82.7033 619.067 83.59C617.574 84.4767 616.78 85.7133 616.687 87.3H610.387C610.62 84.2667 612.02 81.77 614.587 79.81C617.2 77.8033 620.654 76.8 624.947 76.8C629.614 76.8 633.184 77.92 635.657 80.16C638.177 82.4 639.437 85.5267 639.437 89.54V116H633.207V109H633.067C632.694 111.38 631.504 113.27 629.497 114.67C627.49 116.023 624.83 116.7 621.517 116.7ZM623.057 111.38C626.137 111.38 628.587 110.633 630.407 109.14C632.227 107.647 633.137 105.617 633.137 103.05V97.66H621.937C619.884 97.66 618.204 98.29 616.897 99.55C615.637 100.763 615.007 102.397 615.007 104.45C615.007 106.597 615.707 108.3 617.107 109.56C618.554 110.773 620.537 111.38 623.057 111.38ZM652.29 116V77.5H658.59V84.85H658.66C658.986 82.2833 660.036 80.3 661.81 78.9C663.583 77.5 665.94 76.8 668.88 76.8C672.753 76.8 675.833 77.99 678.12 80.37C680.406 82.75 681.55 85.9933 681.55 90.1V116H675.25V91.22C675.25 88.28 674.503 86.04 673.01 84.5C671.563 82.9133 669.58 82.12 667.06 82.12C664.446 82.12 662.37 82.9367 660.83 84.57C659.336 86.2033 658.59 88.5133 658.59 91.5V116H652.29Z" fill="#206BDB"/>
<rect x="149" y="126" width="478" height="3" fill="#206BDB"/>
<rect x="634" y="126" width="12" height="3" fill="#206BDB"/>
<rect x="652" y="126" width="12" height="3" fill="#206BDB"/>
<rect x="670" y="126" width="12" height="3" fill="#206BDB"/>
</svg>
